<svg id="Layer_1" data-name="Layer 1" xmlns="http://www.w3.org/2000/svg" xmlns:xlink="http://www.w3.org/1999/xlink" viewBox="0 0 511 511"><defs><style>.cls-1{stroke:#159dc6;stroke-miterlimit:10;fill:url(#linear-gradient);}.cls-2{fill:#fff;}</style><linearGradient id="linear-gradient" x1="453.68" y1="415.98" x2="57.32" y2="95.02" gradientUnits="userSpaceOnUse"><stop offset="0" stop-color="#fff"/><stop offset="0" stop-color="#159dc6"/><stop offset="0.71" stop-color="#3298dc"/><stop offset="1" stop-color="#4389e5"/></linearGradient></defs><circle class="cls-1" cx="255.5" cy="255.5" r="255"/><path class="cls-2" d="M220.19,258.67a8.93,8.93,0,0,0,12.63,0l6.31-6.31a8.93,8.93,0,0,0,0-12.63L219.2,219.81l19.92-19.94a8.91,8.91,0,0,0,0-12.62l-6.31-6.31a8.93,8.93,0,0,0-12.63,0l-32.55,32.55a8.93,8.93,0,0,0,0,12.63Zm53.57-6.31,6.31,6.31a8.93,8.93,0,0,0,12.63,0l32.55-32.55a8.93,8.93,0,0,0,0-12.63L292.7,180.94a8.93,8.93,0,0,0-12.63,0l-6.31,6.31a8.94,8.94,0,0,0,0,12.63l19.93,19.93-19.93,19.93a8.93,8.93,0,0,0,0,12.62Zm152.31,92.43H290.78c-.41,11.06-8.21,17.86-18.27,17.86H238.59c-10.43,0-18.43-9.75-18.29-17.86H86.81a9,9,0,0,0-8.92,8.93v8.93a35.82,35.82,0,0,0,35.71,35.71H399.29A35.82,35.82,0,0,0,435,362.65v-8.93A9,9,0,0,0,426.07,344.79ZM399.29,139.45a26.86,26.86,0,0,0-26.78-26.78H140.38a26.86,26.86,0,0,0-26.78,26.78V326.94H399.29ZM363.58,291.23H149.31V148.38H363.58Z" transform="translate(0 -1)"/></svg>